<svg width="12" height="12" viewBox="0 0 12 12" fill="none" xmlns="http://www.w3.org/2000/svg">
<g clip-path="url(#clip0_24_39)">
<path d="M6 0.75C3.075 0.75 0.75 3.075 0.75 6C0.75 8.925 3.075 11.25 6 11.25C8.925 11.25 11.25 8.925 11.25 6C11.25 3.075 8.925 0.75 6 0.75ZM6 10.5C3.525 10.5 1.5 8.475 1.5 6C1.5 3.525 3.525 1.5 6 1.5C8.475 1.5 10.5 3.525 10.5 6C10.5 8.475 8.475 10.5 6 10.5Z" fill="#919191"/>
<path d="M8.025 8.625L6 6.6L3.975 8.625L3.375 8.025L5.4 6L3.375 3.975L3.975 3.375L6 5.4L8.025 3.375L8.625 3.975L6.6 6L8.625 8.025L8.025 8.625Z" fill="#919191"/>
</g>
<defs>
<clipPath id="clip0_24_39">
<rect width="12" height="12" fill="white"/>
</clipPath>
</defs>
</svg>
