<svg width="15" height="10" viewBox="0 0 15 10" fill="none" xmlns="http://www.w3.org/2000/svg">
<path d="M7.33333 3C6.8029 3 6.29419 3.21071 5.91912 3.58579C5.54405 3.96086 5.33333 4.46957 5.33333 5C5.33333 5.53043 5.54405 6.03914 5.91912 6.41421C6.29419 6.78929 6.8029 7 7.33333 7C7.86377 7 8.37248 6.78929 8.74755 6.41421C9.12262 6.03914 9.33333 5.53043 9.33333 5C9.33333 4.46957 9.12262 3.96086 8.74755 3.58579C8.37248 3.21071 7.86377 3 7.33333 3ZM7.33333 8.33333C6.44928 8.33333 5.60143 7.98214 4.97631 7.35702C4.35119 6.7319 4 5.88406 4 5C4 4.11595 4.35119 3.2681 4.97631 2.64298C5.60143 2.01786 6.44928 1.66667 7.33333 1.66667C8.21739 1.66667 9.06524 2.01786 9.69036 2.64298C10.3155 3.2681 10.6667 4.11595 10.6667 5C10.6667 5.88406 10.3155 6.7319 9.69036 7.35702C9.06524 7.98214 8.21739 8.33333 7.33333 8.33333ZM7.33333 0C4 0 1.15333 2.07333 0 5C1.15333 7.92667 4 10 7.33333 10C10.6667 10 13.5133 7.92667 14.6667 5C13.5133 2.07333 10.6667 0 7.33333 0Z" fill="#4E4E4E"/>
</svg>
