<svg width="93" height="93" viewBox="0 0 93 93" fill="none" xmlns="http://www.w3.org/2000/svg">
<path fill-rule="evenodd" clip-rule="evenodd" d="M21.6999 12.4C19.9878 12.4 18.5999 13.7879 18.5999 15.5V77.5C18.5999 79.2118 19.9878 80.6 21.6999 80.6H71.2999C73.0117 80.6 74.3999 79.2118 74.3999 77.5V37.2H52.6999C50.9878 37.2 49.5999 35.8121 49.5999 34.1V12.4H21.6999ZM55.7999 16.7841L70.0159 31H55.7999V16.7841ZM12.3999 15.5C12.3999 10.3637 16.5636 6.2 21.6999 6.2H52.6999C53.5221 6.2 54.3106 6.52662 54.8919 7.10799L79.6922 31.908C80.2732 32.4893 80.5999 33.2778 80.5999 34.1V77.5C80.5999 82.6361 76.436 86.8 71.2999 86.8H21.6999C16.5636 86.8 12.3999 82.6361 12.3999 77.5V15.5Z" fill="white"/>
</svg>
