<svg width="13" height="9" viewBox="0 0 13 9" fill="none" xmlns="http://www.w3.org/2000/svg">
<path d="M12.9237 3.06367L9.8038 5.42727C9.75501 5.46423 9.68884 5.485 9.61985 5.485C9.55086 5.485 9.48469 5.46423 9.4359 5.42727C9.38712 5.39031 9.35971 5.34019 9.35971 5.28792C9.35971 5.23565 9.38712 5.18552 9.4359 5.14856L12.1119 3.12128H8.90486C7.57879 3.12094 6.29019 3.45452 5.2417 4.06958C4.19321 4.68463 3.44432 5.54626 3.1128 6.51896C3.09834 6.56138 3.06563 6.59894 3.01984 6.62569C2.97405 6.65245 2.91778 6.66688 2.85996 6.66669C2.83802 6.66664 2.81618 6.66449 2.79496 6.66029C2.72827 6.64719 2.67117 6.61459 2.63619 6.56962C2.60121 6.52466 2.59122 6.47102 2.60841 6.42048C2.96808 5.36281 3.78201 4.42585 4.92198 3.75721C6.06195 3.08857 7.46316 2.72626 8.90486 2.72735H12.1132L9.4359 0.700063C9.38712 0.663104 9.35971 0.612977 9.35971 0.560709C9.35971 0.508441 9.38712 0.458314 9.4359 0.421355C9.48469 0.384396 9.55086 0.363632 9.61985 0.363632C9.68884 0.363632 9.75501 0.384395 9.8038 0.421354L12.9237 2.78496C12.9479 2.80325 12.9671 2.82498 12.9802 2.84889C12.9933 2.8728 13 2.89843 13 2.92431C13 2.9502 12.9933 2.97583 12.9802 2.99974C12.9671 3.02365 12.9479 3.04538 12.9237 3.06367ZM10.6598 8.24243H0.519992V2.13645C0.519992 2.08421 0.492599 2.03411 0.443841 1.99717C0.395082 1.96023 0.328951 1.93948 0.259996 1.93948C0.191041 1.93948 0.12491 1.96023 0.0761511 1.99717C0.0273924 2.03411 0 2.08421 0 2.13645V8.43939C0 8.49163 0.0273924 8.54173 0.0761511 8.57867C0.12491 8.61561 0.191041 8.63636 0.259996 8.63636H10.6598C10.7288 8.63636 10.7949 8.61561 10.8437 8.57867C10.8924 8.54173 10.9198 8.49163 10.9198 8.43939C10.9198 8.38715 10.8924 8.33705 10.8437 8.30012C10.7949 8.26318 10.7288 8.24243 10.6598 8.24243Z" fill="#4E4E4E"/>
</svg>
