<svg width="72" height="72" viewBox="0 0 72 72" fill="none" xmlns="http://www.w3.org/2000/svg">
<path d="M36 4.5C18.45 4.5 4.5 18.45 4.5 36C4.5 53.55 18.45 67.5 36 67.5C53.55 67.5 67.5 53.55 67.5 36C67.5 18.45 53.55 4.5 36 4.5ZM36 63C21.15 63 9 50.85 9 36C9 21.15 21.15 9 36 9C50.85 9 63 21.15 63 36C63 50.85 50.85 63 36 63Z" fill="#FAFAFA"/>
<path d="M48.15 51.75L36 39.6L23.85 51.75L20.25 48.15L32.4 36L20.25 23.85L23.85 20.25L36 32.4L48.15 20.25L51.75 23.85L39.6 36L51.75 48.15L48.15 51.75Z" fill="#FAFAFA"/>
</svg>
