<svg width="14" height="14" viewBox="0 0 14 14" fill="none" xmlns="http://www.w3.org/2000/svg">
<path d="M7.07703 14C5.12303 14 3.46769 13.3223 2.11103 11.967C0.755026 10.611 0.0770264 8.95633 0.0770264 7.003C0.0770264 5.04967 0.755026 3.39433 2.11103 2.037C3.46703 0.679667 5.12236 0.000666667 7.07703 0C8.26569 0 9.37869 0.282333 10.416 0.847C11.4527 1.41167 12.2884 2.2 12.923 3.212V0H13.923V5.23H8.69303V4.23H12.393C11.8717 3.23333 11.139 2.44567 10.195 1.867C9.25103 1.28833 8.21169 0.999333 7.07703 1C5.41036 1 3.99369 1.58333 2.82703 2.75C1.66036 3.91667 1.07703 5.33333 1.07703 7C1.07703 8.66667 1.66036 10.0833 2.82703 11.25C3.99369 12.4167 5.41036 13 7.07703 13C8.36036 13 9.51869 12.6333 10.552 11.9C11.5854 11.1667 12.3104 10.2 12.727 9H13.789C13.3477 10.4973 12.5097 11.705 11.275 12.623C10.0404 13.541 8.64103 14 7.07703 14Z" fill="#919191"/>
</svg>
